<?xml version="1.0" encoding="iso-8859-1"?>
<!-- Generator: Adobe Illustrator 19.0.0, SVG Export Plug-In . SVG Version: 6.00 Build 0)  -->
<svg version="1.1" id="Layer_1" xmlns="http://www.w3.org/2000/svg" xmlns:xlink="http://www.w3.org/1999/xlink" x="0px" y="0px"
	 viewBox="0 0 512 512" style="enable-background:new 0 0 512 512;" xml:space="preserve">
<rect style="fill:#21D8DE;" width="512" height="512"/>
<polygon style="fill:#FFFFFF;" points="240.41,150.377 227.988,130.714 219.715,152.445 "/>
<rect x="229.423" y="150.951" transform="matrix(0.995 -0.0995 0.0995 0.995 -23.5845 25.0987)" style="fill:#FF6D3B;" width="20.797" height="196.063"/>
<rect x="229.457" y="151.418" transform="matrix(0.9951 -0.0993 0.0993 0.9951 -23.6104 24.533)" style="fill:#F15424;" width="10.394" height="196.079"/>
<polygon style="fill:#2B4457;" points="232.858,138.422 227.988,130.714 224.745,139.233 "/>
<rect x="239.369" y="346.525" transform="matrix(0.995 -0.0996 0.0996 0.995 -33.4457 26.6096)" style="fill:#FFFFFF;" width="20.802" height="3.471"/>
<g>
	<path style="fill:#2B4457;" d="M260.285,348.936l-20.7,2.074c0.573,5.716,5.676,9.887,11.387,9.318
		C256.691,359.747,260.861,354.65,260.285,348.936z"/>
	<path style="fill:#2B4457;" d="M136.248,97.626l55.316,224.026l41.334-10.209L177.59,87.416L136.248,97.626z M161.446,110.912
		c-2.565,0.63-5.171-0.94-5.809-3.517c-0.635-2.573,0.94-5.174,3.512-5.806c2.578-0.64,5.184,0.927,5.816,3.505
		C165.599,107.668,164.032,110.275,161.446,110.912z"/>
</g>
<path style="fill:#213546;" d="M156.91,92.518l2.24,9.073c2.578-0.64,5.184,0.927,5.816,3.505c0.63,2.573-0.934,5.179-3.52,5.816
	l50.778,205.632l20.675-5.105L177.59,87.416L156.91,92.518z"/>
<g>
	
		<rect x="179.281" y="111.752" transform="matrix(-0.2377 -0.9713 0.9713 -0.2377 109.3798 318.9763)" style="fill:#FFFFFF;" width="1.147" height="9.633"/>
	
		<rect x="183.864" y="130.43" transform="matrix(-0.2446 -0.9696 0.9696 -0.2446 98.4244 347.166)" style="fill:#FFFFFF;" width="1.16" height="9.628"/>
	
		<rect x="188.468" y="149.099" transform="matrix(-0.242 -0.9703 0.9703 -0.242 85.4575 374.5853)" style="fill:#FFFFFF;" width="1.157" height="9.626"/>
	
		<rect x="193.055" y="167.776" transform="matrix(-0.2384 -0.9712 0.9712 -0.2384 72.1718 401.7755)" style="fill:#FFFFFF;" width="1.142" height="9.626"/>
	
		<rect x="197.664" y="186.439" transform="matrix(-0.2334 -0.9724 0.9724 -0.2334 58.5484 428.6552)" style="fill:#FFFFFF;" width="1.162" height="9.618"/>
	
		<rect x="202.302" y="205.108" transform="matrix(-0.2354 -0.9719 0.9719 -0.2354 46.6208 456.5099)" style="fill:#FFFFFF;" width="1.157" height="9.618"/>
	
		<rect x="206.903" y="223.783" transform="matrix(-0.2392 -0.971 0.971 -0.2392 35.1451 484.7351)" style="fill:#FFFFFF;" width="1.155" height="9.631"/>
	
		<rect x="211.564" y="242.45" transform="matrix(-0.2377 -0.9713 0.9713 -0.2377 22.3889 512.0967)" style="fill:#FFFFFF;" width="1.147" height="9.625"/>
	
		<rect x="216.097" y="261.107" transform="matrix(-0.24 -0.9708 0.9708 -0.24 10.5292 540.0802)" style="fill:#FFFFFF;" width="1.157" height="9.623"/>
	
		<rect x="220.736" y="279.791" transform="matrix(-0.2395 -0.9709 0.9709 -0.2395 -2.0043 567.6408)" style="fill:#FFFFFF;" width="1.155" height="9.628"/>
	
		<rect x="225.365" y="298.47" transform="matrix(-0.239 -0.971 0.971 -0.239 -14.5476 595.1622)" style="fill:#FFFFFF;" width="1.157" height="9.623"/>
	
		<rect x="225.468" y="290.952" transform="matrix(-0.2388 -0.9711 0.9711 -0.2388 -4.9735 582.8186)" style="fill:#FFFFFF;" width="0.952" height="4.813"/>
	
		<rect x="220.875" y="272.306" transform="matrix(-0.2401 -0.9708 0.9708 -0.2401 7.8166 555.5395)" style="fill:#FFFFFF;" width="0.947" height="4.808"/>
	
		<rect x="216.275" y="253.606" transform="matrix(-0.2459 -0.9693 0.9693 -0.2459 21.899 529.0646)" style="fill:#FFFFFF;" width="0.955" height="4.815"/>
	
		<rect x="211.641" y="234.939" transform="matrix(-0.2438 -0.9698 0.9698 -0.2438 33.6557 500.9349)" style="fill:#FFFFFF;" width="0.965" height="4.815"/>
	
		<rect x="207.042" y="216.266" transform="matrix(-0.2278 -0.9737 0.9737 -0.2278 41.8782 470.5461)" style="fill:#FFFFFF;" width="0.96" height="4.803"/>
	
		<rect x="202.424" y="197.586" transform="matrix(-0.2382 -0.9712 0.9712 -0.2382 56.9968 444.6945)" style="fill:#FFFFFF;" width="0.955" height="4.815"/>
	<polygon style="fill:#FFFFFF;" points="196.091,182.392 195.845,181.453 200.517,180.298 200.755,181.238 	"/>
	
		<rect x="193.191" y="160.268" transform="matrix(-0.2373 -0.9714 0.9714 -0.2373 81.6057 389.4117)" style="fill:#FFFFFF;" width="0.957" height="4.805"/>
	
		<rect x="188.599" y="141.595" transform="matrix(-0.2456 -0.9694 0.9694 -0.2456 95.9184 362.6604)" style="fill:#FFFFFF;" width="0.957" height="4.823"/>
	
		<rect x="183.983" y="122.914" transform="matrix(-0.2437 -0.9698 0.9698 -0.2437 107.8783 334.7748)" style="fill:#FFFFFF;" width="0.97" height="4.823"/>
</g>
<g>
	
		<rect x="294.266" y="138.755" transform="matrix(0.9176 0.3975 -0.3975 0.9176 115.3988 -101.6547)" style="fill:#213546;" width="17.265" height="177.536"/>
	
		<rect x="335.233" y="124.25" transform="matrix(0.9177 0.3973 -0.3973 0.9177 81.0962 -125.6807)" style="fill:#213546;" width="17.272" height="17.26"/>
</g>
<polygon style="fill:#2B4457;" points="256.676,329.121 260.442,330.747 275.546,312.433 259.702,305.569 "/>
<g>
	<polygon style="fill:#FFFFFF;" points="256.42,333.903 257.119,334.203 260.045,330.578 257.068,329.293 	"/>
	
		<rect x="332.308" y="140.548" transform="matrix(-0.9175 -0.3976 0.3976 -0.9175 593.5755 409.9355)" style="fill:#FFFFFF;" width="13.964" height="5.757"/>
</g>
<polygon style="fill:#2B4457;" points="320.215,155.453 323.026,159.324 329.551,144.233 325.786,142.6 "/>
<rect x="309.803" y="137.566" transform="matrix(0.9166 0.3999 -0.3999 0.9166 95.7277 -109.7301)" style="fill:#213546;" width="2.035" height="73.941"/>
<path style="fill:#2B4457;" d="M301.394,198.93l-2.634,6.077c1.487,0.172,2.962-0.617,3.584-2.053
	C302.966,201.518,302.538,199.89,301.394,198.93z"/>
<g>
	
		<rect x="288.433" y="239.918" transform="matrix(-0.9176 -0.3974 0.3974 -0.9176 473.888 580.1961)" style="fill:#FFFFFF;" width="17.264" height="2.15"/>
	<rect x="157.747" y="210.714" style="fill:#FFFFFF;" width="164.531" height="213.888"/>
</g>
<rect x="240.026" y="210.714" style="fill:#F2F2F2;" width="82.253" height="213.888"/>
<rect x="281.165" y="210.714" style="fill:#E6E5E5;" width="41.139" height="213.888"/>
<path style="fill:#F2F2F2;" d="M342.026,377.7h-19.743v-18.097h19.743c4.175,0,8.097-1.628,11.049-4.577
	c2.954-2.952,4.577-6.886,4.577-11.057v-52.641c0-4.178-1.623-8.097-4.577-11.046c-2.952-2.959-6.876-4.577-11.049-4.577h-19.743
	V257.6h19.743c9.006,0,17.48,3.51,23.846,9.876c6.372,6.372,9.876,14.845,9.876,23.852v52.641c0,9.016-3.505,17.48-9.876,23.854
	C359.508,374.188,351.032,377.7,342.026,377.7z"/>
<g>
</g>
<g>
</g>
<g>
</g>
<g>
</g>
<g>
</g>
<g>
</g>
<g>
</g>
<g>
</g>
<g>
</g>
<g>
</g>
<g>
</g>
<g>
</g>
<g>
</g>
<g>
</g>
<g>
</g>
</svg>
